<svg xmlns="http://www.w3.org/2000/svg" width="666.667" height="666.667" version="1.0" viewBox="0 0 500 500"><path d="M226 1.2C169 7.1 117.7 30.8 76.3 70.3 30.4 114.2 2.7 176.3.3 241c-2.9 76.3 29.9 150.3 88.3 199.6 40.2 34 88.1 53.7 141.4 58.4 54.6 4.7 111.7-9.9 157.1-40.2 17.3-11.5 25.5-18.3 39.5-32.2 39.9-39.9 63.5-88.1 71.6-146.1.7-5 1.3-18.6 1.3-30.5 0-11.9-.6-25.5-1.3-30.5-7-50.3-25.3-92-57-130.3C410.1 51.6 365.1 22.7 316.4 9 289 1.3 253.7-1.7 226 1.2zm74.7 142.5c-.2.5-17 40.3-37.3 88.5L226.6 320h-13.3c-10 0-13.3-.3-13.3-1.3 0-.6 16.5-40.5 36.6-88.5l36.7-87.2h13.9c7.7 0 13.7.3 13.5.7z"/></svg>